HIERARCHY
ROOT Hips
{
	OFFSET 44.115601 -19.285416 95.983299
	CHANNELS 6 Xposition Yposition Zposition Xrotation Yrotation Zrotation
	JOINT spine
	{
		OFFSET 0.000000 -0.467661 8.132492
		CHANNELS 3 Xrotation Yrotation Zrotation
		JOINT spine1
		{
			OFFSET 0.000000 -0.000002 10.349800
			CHANNELS 3 Xrotation Yrotation Zrotation
			JOINT spine2
			{
				OFFSET 0.000000 -0.000002 9.916992
				CHANNELS 3 Xrotation Yrotation Zrotation
				JOINT Neck
				{
					OFFSET 0.000000 -1.213903 25.460999
					CHANNELS 3 Xrotation Yrotation Zrotation
					JOINT Head
					{
						OFFSET 0.000000 0.000000 7.692444
						CHANNELS 3 Xrotation Yrotation Zrotation
						End Site
						{
							OFFSET 0.000000 6.140626 18.619995
						}
					}
				}
				JOINT RightShoulder
				{
					OFFSET -4.175751 0.581444 10.709595
					CHANNELS 3 Xrotation Yrotation Zrotation
					JOINT RightArm
					{
						OFFSET 0.000000 -0.000002 14.046600
						CHANNELS 3 Xrotation Yrotation Zrotation
						JOINT RightArmRoll
						{
							OFFSET 0.000000 0.000000 7.090973
							CHANNELS 3 Xrotation Yrotation Zrotation
							JOINT RightForeArm
							{
								OFFSET 0.000000 -0.000004 20.653503
								CHANNELS 3 Xrotation Yrotation Zrotation
								JOINT RightForeArmRoll
								{
									OFFSET 0.000000 -0.000002 7.957184
									CHANNELS 3 Xrotation Yrotation Zrotation
									JOINT RightHand
									{
										OFFSET 0.000000 -0.000002 15.968307
										CHANNELS 3 Xrotation Yrotation Zrotation
										End Site
										{
											OFFSET 0.000000 0.000000 0.100006
										}
									}
								}
							}
						}
					}
				}
				JOINT LeftShoulder
				{
					OFFSET 4.175751 0.581444 10.709595
					CHANNELS 3 Xrotation Yrotation Zrotation
					JOINT LeftArm
					{
						OFFSET 0.000000 -0.000002 14.046600
						CHANNELS 3 Xrotation Yrotation Zrotation
						JOINT LeftArmRoll
						{
							OFFSET 0.000000 0.000000 7.090973
							CHANNELS 3 Xrotation Yrotation Zrotation
							JOINT LeftForeArm
							{
								OFFSET 0.000000 -0.000004 20.653503
								CHANNELS 3 Xrotation Yrotation Zrotation
								JOINT LeftForeArmRoll
								{
									OFFSET 0.000000 -0.000002 7.957184
									CHANNELS 3 Xrotation Yrotation Zrotation
									JOINT LeftHand
									{
										OFFSET 0.000000 -0.000002 15.968307
										CHANNELS 3 Xrotation Yrotation Zrotation
										End Site
										{
											OFFSET 0.000000 0.000000 0.100006
										}
									}
								}
							}
						}
					}
				}
			}
		}
	}
	JOINT RightUpLeg
	{
		OFFSET -7.208340 1.108841 -1.321823
		CHANNELS 3 Xrotation Yrotation Zrotation
		JOINT RightUpLegRoll
		{
			OFFSET 0.000000 -0.000004 18.723801
			CHANNELS 3 Xrotation Yrotation Zrotation
			JOINT RightLeg
			{
				OFFSET 0.000000 0.000004 -23.186600
				CHANNELS 3 Xrotation Yrotation Zrotation
				JOINT RightLegRoll
				{
					OFFSET 0.000000 -0.000004 23.262398
					CHANNELS 3 Xrotation Yrotation Zrotation
					JOINT RightFoot
					{
						OFFSET 0.000000 -0.000002 19.362106
						CHANNELS 3 Xrotation Yrotation Zrotation
						JOINT RightToeBase
						{
							OFFSET 0.000000 -0.000004 16.185699
							CHANNELS 3 Xrotation Yrotation Zrotation
							End Site
							{
								OFFSET 0.006859 0.903522 7.838623
							}
						}
					}
				}
			}
		}
	}
	JOINT LeftUpLeg
	{
		OFFSET 7.208340 1.108841 -1.321823
		CHANNELS 3 Xrotation Yrotation Zrotation
		JOINT LeftUpLegRoll
		{
			OFFSET 0.000000 -0.000004 18.723900
			CHANNELS 3 Xrotation Yrotation Zrotation
			JOINT LeftLeg
			{
				OFFSET 0.000000 -0.000004 23.186493
				CHANNELS 3 Xrotation Yrotation Zrotation
				JOINT LeftLegRoll
				{
					OFFSET 0.000000 -0.000004 23.477509
					CHANNELS 3 Xrotation Yrotation Zrotation
					JOINT LeftFoot
					{
						OFFSET 0.000000 -0.000002 19.147003
						CHANNELS 3 Xrotation Yrotation Zrotation
						JOINT LeftToeBase
						{
							OFFSET 0.000000 -0.000004 16.185699
							CHANNELS 3 Xrotation Yrotation Zrotation
							End Site
							{
								OFFSET -0.030746 0.903522 7.838623
							}
						}
					}
				}
			}
		}
	}
}
MOTION
Frames: 6
Frame Time: 0.041667
51.194996 -12.857414 96.086090 -3.887624 -0.504469 0.467817 -1.122410 -0.474639 0.032385 1.758323 -0.934355 0.053473 3.403493 -0.933663 0.064734 10.632795 5.849034 -3.611722 -1.180728 -3.874439 -3.654914 -17.221502 -57.013191 -20.331926 -44.735915 -119.081520 -21.172087 -0.000004 0.000004 -0.000006 0.048600 -5.942901 -0.592708 0.000002 -0.000001 -3.007271 -5.000195 -7.999264 0.000087 -20.032472 60.899264 23.665451 -46.764830 116.722592 35.821374 0.000003 -0.000005 0.000006 0.071184 8.962366 1.217370 -0.000002 -0.000002 3.049700 -5.000212 7.998893 -0.000142 -1.954865 -171.947635 4.281280 -179.999991 0.000005 -0.981999 167.004764 -1.745152 -0.749674 -0.000004 0.000005 0.117310 70.756546 6.222621 3.832216 25.465474 -7.349605 0.003908 0.152065 173.592017 -1.482241 -0.000004 -0.000005 -1.038940 -11.978824 0.964714 0.623608 0.000002 0.000000 -0.208714 72.276727 -6.347960 -3.424903 25.470600 7.355613 -0.003016 
51.187996 -12.855013 96.084099 -3.889508 -0.502029 0.470091 -1.121157 -0.474366 0.032385 1.760934 -0.935740 0.054300 3.406094 -0.935042 0.065561 10.627466 5.854267 -3.610926 -1.178024 -3.882191 -3.653940 -17.227784 -57.008935 -20.339410 -44.731776 -119.084758 -21.173909 -0.000006 0.000003 -0.000006 0.048282 -5.946119 -0.591906 0.000001 -0.000001 -3.007268 -5.000194 -7.999265 0.000086 -20.013899 60.902242 23.643678 -46.773685 116.726376 35.843836 0.000003 -0.000005 0.000008 0.071186 8.967565 1.215067 -0.000002 -0.000002 3.049710 -5.000212 7.998893 -0.000143 -1.959106 -171.953646 4.278109 -179.999991 0.000006 -0.981998 166.994778 -1.744111 -0.749754 -0.000003 0.000004 0.117282 70.761190 6.222636 3.832257 25.465476 -7.349605 0.003908 0.145518 173.585023 -1.485008 -0.000004 -0.000005 -1.038870 -11.990121 0.963207 0.623530 0.000003 0.000000 -0.208102 72.278660 -6.346786 -3.429308 25.470598 7.355613 -0.003015 
51.180397 -12.860912 96.084305 -3.891328 -0.499633 0.472251 -1.119909 -0.474090 0.032385 1.763545 -0.937161 0.055147 3.408707 -0.936456 0.066407 10.621853 5.860334 -3.610185 -1.174880 -3.890834 -3.652983 -17.233839 -57.004298 -20.346623 -44.726544 -119.088760 -21.173925 -0.000005 0.000003 -0.000007 0.047806 -5.948869 -0.591128 0.000001 -0.000001 -3.007272 -5.000197 -7.999262 0.000084 -19.995382 60.905412 23.621972 -46.782394 116.730105 35.866088 0.000002 -0.000006 0.000006 0.071182 8.972776 1.212779 -0.000004 -0.000002 3.049711 -5.000215 7.998892 -0.000143 -1.963532 -171.959657 4.274972 -179.999991 0.000005 -0.981998 166.984670 -1.743068 -0.749838 -0.000004 0.000004 0.117242 70.765814 6.222615 3.832295 25.465476 -7.349605 0.003908 0.138829 173.577018 -1.487690 -0.000004 -0.000004 -1.038820 -12.001617 0.961699 0.623418 0.000004 0.000000 -0.207469 72.280613 -6.345668 -3.433621 25.470598 7.355615 -0.003016 
51.179096 -12.858217 96.083595 -3.893083 -0.497266 0.474331 -1.118656 -0.473813 0.032386 1.766157 -0.938607 0.056007 3.411317 -0.937895 0.067267 10.616049 5.866983 -3.609471 -1.171406 -3.900107 -3.652038 -17.239744 -56.999390 -20.353648 -44.719895 -119.093419 -21.171964 -0.000006 0.000002 -0.000008 0.047223 -5.951278 -0.590358 0.000001 -0.000000 -3.007271 -5.000195 -7.999263 0.000087 -19.976994 60.908874 23.600423 -46.791266 116.733889 35.888488 0.000003 -0.000003 0.000008 0.071184 8.977996 1.210494 -0.000002 -0.000002 3.049709 -5.000215 7.998892 -0.000141 -1.968072 -171.966692 4.271886 -179.999991 0.000006 -0.981998 166.974575 -1.742026 -0.749921 -0.000004 0.000004 0.117194 70.770459 6.222622 3.832238 25.465476 -7.349604 0.003908 0.132049 173.570010 -1.490298 -0.000005 -0.000004 -1.038790 -12.013215 0.960190 0.623283 0.000004 0.000000 -0.206822 72.282574 -6.344585 -3.437940 25.470600 7.355613 -0.003015 
51.175396 -12.847410 96.079895 -3.894825 -0.494916 0.476364 -1.117408 -0.473533 0.032386 1.768768 -0.940068 0.056876 3.413930 -0.939348 0.068134 10.610053 5.873970 -3.608759 -1.167757 -3.909729 -3.651094 -17.245543 -56.994285 -20.360550 -44.714656 -119.097421 -21.171478 -0.000006 0.000003 -0.000007 0.046576 -5.953499 -0.589601 0.000001 -0.000000 -3.007268 -5.000199 -7.999263 0.000087 -19.958590 60.912344 23.578849 -46.800115 116.737673 35.910843 0.000003 -0.000005 0.000008 0.071183 8.983214 1.208215 -0.000002 -0.000002 3.049709 -5.000212 7.998892 -0.000141 -1.972689 -171.972702 4.268775 -179.999991 0.000005 -0.981999 166.964384 -1.740982 -0.750005 -0.000004 0.000005 0.117139 70.774987 6.222634 3.832385 25.465476 -7.349607 0.003907 0.125212 173.563030 -1.492867 -0.000005 -0.000005 -1.038760 -12.024810 0.958680 0.623132 0.000003 0.000001 -0.206166 72.284643 -6.343498 -3.442254 25.470600 7.355613 -0.003015 
51.170097 -12.848313 96.079597 -3.896555 -0.492571 0.478386 -1.116158 -0.473254 0.032386 1.771379 -0.941532 0.057746 3.416541 -0.940805 0.069003 10.603952 5.881037 -3.608048 -1.164064 -3.919453 -3.650138 -17.251316 -56.989183 -20.367424 -44.708164 -119.102148 -21.169343 -0.000002 0.000002 -0.000008 0.045915 -5.955679 -0.588839 0.000002 -0.000000 -3.007269 -5.000194 -7.999263 0.000085 -19.940170 60.915807 23.557263 -46.807525 116.742167 35.931573 0.000002 -0.000005 0.000003 0.071181 8.988435 1.205940 -0.000001 -0.000002 3.049722 -5.000213 7.998891 -0.000142 -1.977315 -171.978713 4.265676 -179.999991 0.000005 -0.981999 166.954289 -1.738955 -0.749859 -0.000004 0.000005 0.117084 70.779522 6.222639 3.832433 25.465474 -7.349605 0.003909 0.118364 173.556008 -1.495434 -0.000004 -0.000005 -1.038740 -12.036408 0.957168 0.622977 0.000004 0.000000 -0.205509 72.286727 -6.342412 -3.446567 25.470600 7.355613 -0.003015 
